<svg xmlns="http://www.w3.org/2000/svg" viewBox="21 21 130 130">
    <path d="M35.83333,21.5c-7.83362,0 -14.33333,6.49972 -14.33333,14.33333v21.5c-0.03655,2.58456 1.32136,4.98858 3.55376,6.29153c2.2324,1.30295 4.99342,1.30295 7.22582,0c2.2324,-1.30295 3.59031,-3.70697 3.55376,-6.29153v-21.5h21.5c2.58456,0.03655 4.98858,-1.32136 6.29153,-3.55376c1.30295,-2.2324 1.30295,-4.99342 0,-7.22582c-1.30295,-2.2324 -3.70697,-3.59031 -6.29153,-3.55376zM114.66667,21.5c-2.58456,-0.03655 -4.98858,1.32136 -6.29153,3.55376c-1.30295,2.2324 -1.30295,4.99342 0,7.22582c1.30295,2.2324 3.70697,3.59031 6.29153,3.55376h21.5v21.5c-0.03655,2.58456 1.32136,4.98858 3.55376,6.29153c2.2324,1.30295 4.99342,1.30295 7.22582,0c2.2324,-1.30295 3.59031,-3.70697 3.55376,-6.29153v-21.5c0,-7.83362 -6.49972,-14.33333 -14.33333,-14.33333zM28.55469,107.40202c-3.95253,0.06178 -7.10882,3.312 -7.05469,7.26465v21.5c0,7.83362 6.49972,14.33333 14.33333,14.33333h21.5c2.58456,0.03655 4.98858,-1.32136 6.29153,-3.55376c1.30295,-2.2324 1.30295,-4.99342 0,-7.22582c-1.30295,-2.2324 -3.70697,-3.59031 -6.29153,-3.55376h-21.5v-21.5c0.02653,-1.93715 -0.73227,-3.80254 -2.10349,-5.17112c-1.37122,-1.36858 -3.23806,-2.12378 -5.17516,-2.09353zM143.22135,107.40202c-3.95253,0.06178 -7.10882,3.312 -7.05469,7.26465v21.5h-21.5c-2.58456,-0.03655 -4.98858,1.32136 -6.29153,3.55376c-1.30295,2.2324 -1.30295,4.99342 0,7.22582c1.30295,2.2324 3.70697,3.59031 6.29153,3.55376h21.5c7.83362,0 14.33333,-6.49972 14.33333,-14.33333v-21.5c0.02653,-1.93715 -0.73227,-3.80254 -2.10349,-5.17112c-1.37122,-1.36858 -3.23806,-2.12378 -5.17516,-2.09353z"/>
</svg>